<?xml version="1.0" encoding="utf-8"?>
<!-- Generator: Adobe Illustrator 14.0.0, SVG Export Plug-In . SVG Version: 6.00 Build 43363)  -->
<!DOCTYPE svg PUBLIC "-//W3C//DTD SVG 1.1//EN" "http://www.w3.org/Graphics/SVG/1.1/DTD/svg11.dtd">
<svg version="1.1" id="Layer_1" xmlns="http://www.w3.org/2000/svg" xmlns:xlink="http://www.w3.org/1999/xlink" x="0px" y="0px"
	 width="80px" height="80px" viewBox="0 0 80 80" enable-background="new 0 0 80 80" xml:space="preserve">
<circle fill="none" stroke="#FFFFFF" stroke-width="5" cx="24.142" cy="24.098" r="12.175"/>
<polyline fill="#FFFFFF" stroke="#FFFFFF" points="13.825,15.167 9.858,13.04 7.024,18.329 10.991,20.456 "/>
<polyline fill="#FFFFFF" stroke="#FFFFFF" points="23.161,10.487 21.86,6.179 16.116,7.913 17.418,12.224 "/>
<polyline fill="#FFFFFF" stroke="#FFFFFF" points="33.072,13.779 35.2,9.812 29.909,6.978 27.783,10.946 "/>
<polyline fill="#FFFFFF" stroke="#FFFFFF" points="37.753,23.116 42.062,21.815 40.326,16.069 36.017,17.372 "/>
<polyline fill="#FFFFFF" stroke="#FFFFFF" points="25.124,37.706 26.425,42.018 32.169,40.281 30.868,35.972 "/>
<polyline fill="#FFFFFF" stroke="#FFFFFF" points="15.213,34.413 13.085,38.382 18.375,41.217 20.502,37.249 "/>
<polyline fill="#FFFFFF" stroke="#FFFFFF" points="10.533,25.077 6.224,26.379 7.958,32.124 12.27,30.821 "/>
<circle fill="none" stroke="#FFFFFF" stroke-width="7" cx="46.294" cy="47.525" r="17.502"/>
<polyline fill="#FFFFFF" stroke="#FFFFFF" points="35.316,30.164 30.527,25.374 24.141,31.76 28.931,36.55 "/>
<polyline fill="#FFFFFF" stroke="#FFFFFF" points="50.807,27.485 50.809,20.712 41.775,20.71 41.775,27.486 "/>
<polyline fill="#FFFFFF" stroke="#FFFFFF" points="63.654,36.544 68.445,31.755 62.059,25.366 57.268,30.159 "/>
<polyline fill="#FFFFFF" stroke="#FFFFFF" points="66.333,52.035 73.109,52.038 73.109,43.003 66.333,43.003 "/>
<polyline fill="#FFFFFF" stroke="#FFFFFF" points="57.273,64.882 62.062,69.677 68.452,63.288 63.66,58.497 "/>
<polyline fill="#FFFFFF" stroke="#FFFFFF" points="41.783,67.562 41.781,74.337 50.814,74.339 50.814,67.562 "/>
<polyline fill="#FFFFFF" stroke="#FFFFFF" points="28.937,58.5 24.143,63.292 30.53,69.682 35.323,64.889 "/>
<polyline fill="#FFFFFF" stroke="#FFFFFF" points="26.258,43.009 19.481,43.009 19.479,52.044 26.258,52.044 "/>
<circle fill="none" stroke="#FFFFFF" stroke-width="2" cx="46.294" cy="47.524" r="4.307"/>
</svg>
