<?xml version="1.0" encoding="utf-8"?>
<!-- Generator: Adobe Illustrator 14.0.0, SVG Export Plug-In . SVG Version: 6.00 Build 43363)  -->
<!DOCTYPE svg PUBLIC "-//W3C//DTD SVG 1.1//EN" "http://www.w3.org/Graphics/SVG/1.1/DTD/svg11.dtd">
<svg version="1.1" id="Layer_1" xmlns="http://www.w3.org/2000/svg" xmlns:xlink="http://www.w3.org/1999/xlink" x="0px" y="0px"
	 width="80px" height="80px" viewBox="0 0 80 80" enable-background="new 0 0 80 80" xml:space="preserve">
<g>
	<line fill="none" stroke="#FFFFFF" stroke-width="2" x1="35.114" y1="15.114" x2="35.114" y2="18.529"/>
	<line fill="none" stroke="#FFFFFF" stroke-width="2" x1="18.609" y1="21.949" x2="21.026" y2="24.364"/>
	<line fill="none" stroke="#FFFFFF" stroke-width="2" x1="11.775" y1="38.452" x2="15.191" y2="38.451"/>
	<line fill="none" stroke="#FFFFFF" stroke-width="2" x1="18.611" y1="54.953" x2="21.026" y2="52.539"/>
	<line fill="none" stroke="#FFFFFF" stroke-width="2" x1="35.114" y1="61.787" x2="35.114" y2="58.373"/>
	<line fill="none" stroke="#FFFFFF" stroke-width="2" x1="51.615" y1="54.953" x2="49.201" y2="52.539"/>
	<line fill="none" stroke="#FFFFFF" stroke-width="2" x1="58.449" y1="38.451" x2="55.037" y2="38.451"/>
	<line fill="none" stroke="#FFFFFF" stroke-width="2" x1="51.615" y1="21.95" x2="49.201" y2="24.364"/>
	<line fill="none" stroke="#FFFFFF" stroke-width="2" x1="26.218" y1="16.874" x2="27.521" y2="20.031"/>
	<line fill="none" stroke="#FFFFFF" stroke-width="2" x1="13.566" y1="29.482" x2="16.72" y2="30.795"/>
	<line fill="none" stroke="#FFFFFF" stroke-width="2" x1="13.537" y1="47.344" x2="16.693" y2="46.043"/>
	<line fill="none" stroke="#FFFFFF" stroke-width="2" x1="26.143" y1="59.996" x2="27.458" y2="56.844"/>
	<line fill="none" stroke="#FFFFFF" stroke-width="2" x1="44.006" y1="60.027" x2="42.705" y2="56.869"/>
	<line fill="none" stroke="#FFFFFF" stroke-width="2" x1="56.656" y1="47.42" x2="53.506" y2="46.107"/>
	<line fill="none" stroke="#FFFFFF" stroke-width="2" x1="56.688" y1="29.559" x2="53.531" y2="30.859"/>
	<line fill="none" stroke="#FFFFFF" stroke-width="2" x1="44.08" y1="16.908" x2="42.768" y2="20.059"/>
</g>
<polygon fill="#FFFFFF" points="21.878,25.215 32.405,41.16 37.667,35.898 "/>
<circle fill="#FFFFFF" cx="35.113" cy="38.451" r="4.005"/>
<circle fill="#FFFFFF" cx="65.131" cy="16.821" r="2.938"/>
<circle fill="#FFFFFF" cx="65.131" cy="63.178" r="2.938"/>
<rect x="62.943" y="41.971" fill="#FFFFFF" width="4.125" height="16.982"/>
<line fill="none" stroke="#FFFFFF" x1="64.025" y1="40.157" x2="66.234" y2="40.157"/>
<line fill="none" stroke="#FFFFFF" x1="64.025" y1="31.156" x2="66.234" y2="31.156"/>
<line fill="none" stroke="#FFFFFF" x1="64.025" y1="35.987" x2="66.234" y2="35.987"/>
<line fill="none" stroke="#FFFFFF" x1="64.025" y1="21.156" x2="66.234" y2="21.156"/>
<line fill="none" stroke="#FFFFFF" x1="64.025" y1="26.278" x2="66.234" y2="26.278"/>
</svg>
