<?xml version="1.0" encoding="utf-8"?>
<!-- Generator: Adobe Illustrator 14.0.0, SVG Export Plug-In . SVG Version: 6.00 Build 43363)  -->
<!DOCTYPE svg PUBLIC "-//W3C//DTD SVG 1.1//EN" "http://www.w3.org/Graphics/SVG/1.1/DTD/svg11.dtd">
<svg version="1.1" id="Layer_1" xmlns="http://www.w3.org/2000/svg" xmlns:xlink="http://www.w3.org/1999/xlink" x="0px" y="0px"
	 width="80px" height="80px" viewBox="0 0 80 80" enable-background="new 0 0 80 80" xml:space="preserve">
<polyline fill="none" stroke="#FFFFFF" stroke-width="2" points="6.246,6.667 6.246,74.334 72.75,74.334 "/>
<line fill="none" stroke="#FFFFFF" x1="7.246" y1="64" x2="9.246" y2="64"/>
<line fill="none" stroke="#FFFFFF" x1="7.246" y1="54" x2="9.246" y2="54"/>
<line fill="none" stroke="#FFFFFF" x1="7.246" y1="44" x2="9.246" y2="44"/>
<line fill="none" stroke="#FFFFFF" x1="7.246" y1="34" x2="9.246" y2="34"/>
<line fill="none" stroke="#FFFFFF" x1="7.246" y1="24" x2="9.246" y2="24"/>
<line fill="none" stroke="#FFFFFF" x1="7.246" y1="14" x2="9.246" y2="14"/>
<line fill="none" stroke="#FFFFFF" x1="16.625" y1="73.334" x2="16.625" y2="71.25"/>
<line fill="none" stroke="#FFFFFF" x1="26.625" y1="73.334" x2="26.625" y2="71.25"/>
<line fill="none" stroke="#FFFFFF" x1="36.625" y1="73.334" x2="36.625" y2="71.25"/>
<line fill="none" stroke="#FFFFFF" x1="46.625" y1="73.334" x2="46.625" y2="71.25"/>
<line fill="none" stroke="#FFFFFF" x1="56.625" y1="73.334" x2="56.625" y2="71.25"/>
<line fill="none" stroke="#FFFFFF" x1="66.625" y1="73.334" x2="66.625" y2="71.25"/>
<path fill="none" stroke="#FFFFFF" stroke-width="2" d="M12.825,66.5c1.534-6.026,5.307-21.092,7.188-13.907
	c1.882,7.186,3.236,16.688,5.655,8.112c2.418-8.575,7.984-36.621,9.373-29.899s3.896,21.903,4.931,16.456
	c1.034-5.446,1.842-32.912,4.265-27.118c2.422,5.795,7.662,17.848,8.407,12.517c0.744-5.331,15.549-20.397,18.105-23.41"/>
</svg>
