<?xml version="1.0" encoding="utf-8"?>
<!-- Generator: Adobe Illustrator 14.0.0, SVG Export Plug-In . SVG Version: 6.00 Build 43363)  -->
<!DOCTYPE svg PUBLIC "-//W3C//DTD SVG 1.1//EN" "http://www.w3.org/Graphics/SVG/1.1/DTD/svg11.dtd">
<svg version="1.1" id="Layer_1" xmlns="http://www.w3.org/2000/svg" xmlns:xlink="http://www.w3.org/1999/xlink" x="0px" y="0px"
	 width="80px" height="80px" viewBox="0 0 80 80" enable-background="new 0 0 80 80" xml:space="preserve">
<rect x="7.426" y="11.697" fill="none" stroke="#FFFFFF" stroke-width="2" width="20.801" height="30.985"/>
<rect x="35.332" y="51.698" fill="none" stroke="#FFFFFF" stroke-width="2" width="30.973" height="17.409"/>
<polygon fill="none" stroke="#FFFFFF" stroke-width="2" points="13.148,69.107 8.123,60.402 13.148,51.698 23.2,51.698 
	28.227,60.402 23.2,69.107 "/>
<polygon fill="none" stroke="#FFFFFF" stroke-width="2" points="37.617,41.602 32.966,32.333 37.81,27.626 47.304,32.187 
	51.955,41.455 47.11,46.162 "/>
<line fill="none" stroke="#FFFFFF" x1="13.51" y1="42.683" x2="13.51" y2="11.697"/>
<line fill="none" stroke="#FFFFFF" x1="23.558" y1="42.683" x2="23.558" y2="11.697"/>
<line fill="none" stroke="#FFFFFF" x1="7.426" y1="21.547" x2="28.227" y2="21.547"/>
<line fill="none" stroke="#FFFFFF" x1="7.426" y1="32.423" x2="28.227" y2="32.423"/>
<line fill="none" stroke="#FFFFFF" x1="45.682" y1="51.698" x2="45.682" y2="69.107"/>
<line fill="none" stroke="#FFFFFF" x1="57.48" y1="51.698" x2="57.48" y2="69.107"/>
<line fill="none" stroke="#FFFFFF" stroke-width="2" x1="47.359" y1="32.124" x2="69.645" y2="16.673"/>
<polyline fill="none" stroke="#FFFFFF" stroke-width="2" points="69.645,16.673 59.448,12.697 37.163,28.147 "/>
<polyline fill="none" stroke="#FFFFFF" stroke-width="2" points="51.955,41.516 74.24,26.065 69.645,16.673 "/>
<polyline fill="none" stroke="#FFFFFF" stroke-width="2" points="47.11,46.162 69.396,30.712 74.24,26.065 "/>
</svg>
